<svg viewBox="0 0 1000 330" version="1.1" xmlns="http://www.w3.org/2000/svg" data-name="レイヤー_1" id="_レイヤー_1">
    <defs>
        <style>
            .st0 {
                fill: #333;
            }
        </style>
    </defs>
    <g>
        <g>
            <path d="M530.9,276.4c6.4-19.6,10.8-40.1,12.7-61.1h-6c-1,0-1.7-.9-1.7-2.3s.6-2.3,1.7-2.3h21c5.6,0,7.3,3.4,5,10.5-6.9,21.3-16.2,39.5-27.6,55.1h53.6c1,0,1.7.9,1.7,2.3s-.6,2.3-1.7,2.3l-145,19.4c-.9-5-.9-17.3,0-23.1l86.4-.8ZM584.3,59.3c1,0,1.7,2.5,1.7,6.8s-.6,6.7-1.7,6.7l-133.8-4.5c-1,0-1.7-.9-1.7-2.3s.6-2.3,1.7-2.3l133.8-4.5ZM563.5,106.7c5.4,0,8.1,3.7,8.1,11.1v57.7c0,7.4-2.7,11.1-8.1,11.1h-98.5v-77.9c0-1.4.4-2,1.5-2h97ZM551.7,182.1v-70.8h-70v70.8h70Z" class="st0"></path>
            <path d="M641.8,291.8V64.1c0-1.4.4-2,1.4-2h150.7c5.4,0,8.1,3.7,8.1,11.1v207.5c0,7.4-2.7,11.1-8.1,11.1h-11.8v-21.5h-123.7v11.5c0,6.5-2.5,9.9-7.3,9.9h-9.3ZM658.4,68.9v193.9h123.7V68.9h-123.7ZM756.2,103.3c5.2,0,7.1,3.4,5.6,10.5-7.1,30.7-17.2,56.6-31.2,79.6,11,12.2,21.8,25.6,32.4,39.5,1,1.1,1,2.8.4,3.7s-1.7,1.1-2.7,0c-10.2-13.6-21.2-27.3-32.4-39.8-13.1,20.2-29.7,35-50.3,44.4-1.7.9-2.7.6-3.1-.6-.4-1.1,0-2.3,1.5-3.4,17.2-13.7,31.2-30.7,41.8-51.2-12.3-12.5-24.9-23.9-38.2-34.4-.8-.6-1.4-2-.8-3.4.6-1.1,1.7-1.1,2.5-.6,12.9,10.2,26.4,22.2,38.4,34.4,10.4-21,17.4-45.5,22.2-74.2h-6.2c-1,0-1.7-.9-1.7-2.3s.6-2.3,1.7-2.3h20.2Z" class="st0"></path>
            <path d="M852.1,189.5c-1,0-1.7-.9-1.7-2.3s.6-2.3,1.7-2.3h63.2v-23.6h-49.6c-1,0-1.7-.9-1.7-2.3s.6-2.3,1.7-2.3h49.6v-24.5h-45.1c-1,0-1.7-.9-1.7-2.3s.6-2.3,1.7-2.3h45.1v-24.5h-60.7c-1,0-1.7-.8-1.7-2.3s.6-2.3,1.7-2.3h60.7v-23.6h-45.3c-1,0-1.7-.9-1.7-2.3s.6-2.3,1.7-2.3h45.3v-18.2h-5.6c-1,0-1.7-.9-1.7-2.3s.6-2.3,1.7-2.3h17.4c5.4,0,8.1,3.7,8.1,11.1v11.7h37.6c5.4,0,8.1,3.7,8.1,11.1v17.1h16c1,0,1.7.9,1.7,2.3s-.6,2.3-1.7,2.3h-16v17.9c0,7.4-2.7,11.1-8.1,11.1h-37.6v24.5h49.8c1,0,1.7.9,1.7,2.3s-.6,2.3-1.7,2.3h-49.8v23.6h63.1c1,0,1.7.9,1.7,2.3s-.6,2.3-1.7,2.3h-146.2ZM972.4,211.1c5.4,0,8.1,3.7,8.1,11.1v58.6c0,7.4-2.7,11.1-8.1,11.1h-11.8v-15.6h-72.7v5.7c0,6.5-2.5,9.9-7.3,9.9h-9.4v-78.7c0-1.4.4-2,1.5-2h99.7ZM887.8,215.6v25.3h72.7v-25.3h-72.7ZM960.5,271.6v-26.1h-72.7v26.1h72.7ZM961,98.8v-23.6h-25.8v23.6h25.8ZM961,127.8v-24.5h-25.8v24.5h25.8Z" class="st0"></path>
        </g>
        <circle r="12.5" cy="239" cx="485.7" class="st0"></circle>
        <circle r="10.4" cy="97.6" cx="713.4" class="st0"></circle>
        <circle r="10.4" cy="123.2" cx="695" class="st0"></circle>
    </g>
    <g>
        <path d="M306.7,33.3c-2.5-10.5-9.1-19.7-21-26.4-19.3-10.8-46.5-7.5-67.7.3-31.5,11.7-47.3,31.3-60.1,50.4s-3.6,7.9-.2,14.6c2.3,4.7,5.2,1.2,8.5-5.3,11.8-19.3,21.6-28.2,36.8-39.2,11.5-8.2,23.2-14.4,37-17.3,12.2-3.1,27.4-2.7,39.2,1.9s0,0,0,0c-1.1,2.4-2.3,5.1-2.9,6.1-4.9,8.8-10.2,16.9-16.3,24.8-10.7,13.7-22.7,23.6-35.4,35.7-21.1,20.3-42.1,35.7-56.3,65.4-.8,1.7-2.2,5.5-2.7,7.5-11.3-10.5-14.3-25.7-13.7-37.7.3-5.7.6-9.5,1.5-14,1.2-5.9,1.8-8.2-.2-10.9-1.8-2.4-5.1-7-8.2-4.2-3.9,5-6.2,19.6-6.3,28.9-.3,12.4.9,20.8,7.3,33.9s11.2,13.8,16.7,17.1c16.5,10,38,8.3,53.5,3.8,29.5-8.5,40-19.3,57.6-35.1,11.3-10.2,19.7-22.6,28.9-42.7s9.6-37.3,4-57.6ZM291.5,90.2c-6.3,12.9-15.7,26.2-25.7,36.5-9.9,10.2-30.4,26.7-56.3,32.8-7.1,1.7-21.9,3.4-31.1.2-.4-.2-.8-.4-1.2-.5,12.8-43.6,56-74.2,84.3-102.9,4.4-4.5,10.6-10.8,14.9-15.5,4.3-4.8,7.6-9,11.6-14,.4-.4,3.1-3.8,3.4-4.3,2.7,4.6,5.1,9.4,6.2,14.5,4.2,17.2,1.8,37.6-6.2,53.4Z" class="st0"></path>
        <path d="M303.6,321.7c-2.5-40-3.7-161.4-3.7-161.4-.2-3-2.3-3-4.5-3s-4.6,0-4.7,3c0,0-2.6,135.5-3.5,155.3-6.8.2-24,.3-34.4.3-28.3,0-56.7-.5-85-1.1-14.2-.3-28.3-.7-42.5-1.3-4.8-.2-5.6,3.8-5.4,8.7.2,4.6.8,8.1,5.4,7.9,14.2-.6,28.3-1,42.5-1.3,28.3-.6,56.7-1,85-1.1,0,0,36.9.2,42.5,0,.7,0,2-.1,2.8-.1,3.5,0,5.7-3.7,5.5-5.7Z" class="st0"></path>
        <path d="M9,18.3c5.4-.4,10.8-.4,16.2-.8,31.7-1.9,65.9-2.6,98-4.2s7.8-1,7.8,8.2-2.1,8.2-7.5,8.3c0,0-61.7-.6-98.3-.7-5.3,0-10.6-.3-16-.5-3.2-.2-3.8-2.6-3.9-5.1s.5-4.9,3.7-5.3h0Z" class="st0"></path>
        <path d="M0,309.9c3.2-42.2,3.7-85,3.6-127.2-.2-42.3-.9-85-3.6-127.2-.3-4.6,3.1-4.9,7.7-4.9s9.2,0,8.8,4.9c-1.8,26.3-2.5,53.2-3.1,79.5-.7,42.3-.9,84.9.6,127.2.6,15.4,1.3,32.4,2.6,47.7.2,5.9-4,5.5-8.3,5.6-4.2,0-8.5.4-8.3-5.6H0Z" class="st0"></path>
    </g>
</svg>
